<?xml version="1.0" standalone="no"?>
<!DOCTYPE svg PUBLIC "-//W3C//DTD SVG 20010904//EN"
 "http://www.w3.org/TR/2001/REC-SVG-20010904/DTD/svg10.dtd">
<svg version="1.0" xmlns="http://www.w3.org/2000/svg"
 width="746.000000pt" height="205.000000pt" viewBox="0 0 746.000000 205.000000"
 preserveAspectRatio="xMidYMid meet">
<metadata>
Created by potrace 1.16, written by Peter Selinger 2001-2019
</metadata>
<g transform="translate(0.000000,205.000000) scale(0.100000,-0.100000)"
fill="#871213" stroke="none">
<path d="M0 1025 l0 -1025 2541 0 2542 0 -6 198 c-13 452 -103 822 -297 1217
-111 227 -208 380 -363 572 l-50 63 -2184 0 -2183 0 0 -1025z"/>
<path d="M5006 1968 c300 -319 543 -730 680 -1151 26 -81 49 -145 52 -143 2 3
-6 73 -18 158 -58 404 -189 776 -397 1126 l-55 92 -170 0 -170 0 78 -82z"/>
</g>
</svg>
